<svg width="93" height="94" viewBox="0 0 93 94" fill="none" xmlns="http://www.w3.org/2000/svg">
<g clip-path="url(#clip0_524_11)" filter="url(#filter0_d_524_11)">
<path d="M67.75 21.3907C67.75 15.7176 65.5112 10.2767 61.526 6.2652C57.5409 2.25366 52.1359 0 46.5 0C40.8642 0 35.4591 2.25366 31.474 6.2652C27.4888 10.2767 25.25 15.7176 25.25 21.3907H4V74.8676C4 77.7041 5.11942 80.4246 7.11199 82.4303C9.10456 84.4361 11.8071 85.5629 14.625 85.5629H78.375C81.1929 85.5629 83.8954 84.4361 85.888 82.4303C87.8806 80.4246 89 77.7041 89 74.8676V21.3907H67.75ZM46.5 7.13024C50.2572 7.13024 53.8606 8.63268 56.5173 11.307C59.1741 13.9814 60.6667 17.6086 60.6667 21.3907H32.3333C32.3333 17.6086 33.8259 13.9814 36.4827 11.307C39.1394 8.63268 42.7428 7.13024 46.5 7.13024V7.13024ZM81.9167 74.8676C81.9167 75.8131 81.5435 76.7199 80.8793 77.3885C80.2151 78.0571 79.3143 78.4327 78.375 78.4327H14.625C13.6857 78.4327 12.7849 78.0571 12.1207 77.3885C11.4565 76.7199 11.0833 75.8131 11.0833 74.8676V28.521H25.25V35.6512H32.3333V28.521H60.6667V35.6512H67.75V28.521H81.9167V74.8676Z" fill="black"/>
</g>
<defs>
<filter id="filter0_d_524_11" x="0" y="0" width="93" height="93.5629" filterUnits="userSpaceOnUse" color-interpolation-filters="sRGB">
<feFlood flood-opacity="0" result="BackgroundImageFix"/>
<feColorMatrix in="SourceAlpha" type="matrix" values="0 0 0 0 0 0 0 0 0 0 0 0 0 0 0 0 0 0 127 0" result="hardAlpha"/>
<feOffset dy="4"/>
<feGaussianBlur stdDeviation="2"/>
<feComposite in2="hardAlpha" operator="out"/>
<feColorMatrix type="matrix" values="0 0 0 0 0 0 0 0 0 0 0 0 0 0 0 0 0 0 0.25 0"/>
<feBlend mode="normal" in2="BackgroundImageFix" result="effect1_dropShadow_524_11"/>
<feBlend mode="normal" in="SourceGraphic" in2="effect1_dropShadow_524_11" result="shape"/>
</filter>
<clipPath id="clip0_524_11">
<rect width="85" height="85.5629" fill="white" transform="translate(4)"/>
</clipPath>
</defs>
</svg>
