<svg width="73" height="58" viewBox="0 0 73 58" fill="none" xmlns="http://www.w3.org/2000/svg">
<path opacity="0.5" fill-rule="evenodd" clip-rule="evenodd" d="M30.4074 2.51117C33.6844 2.51117 36.3272 5.26855 36.3272 8.55619C33.9773 15.0659 34.8119 20.5671 36.3272 30.4031C36.3272 33.6908 33.6844 36.3421 30.4074 36.3421C27.1304 36.3421 24.382 33.6908 24.382 30.4031C27.9453 21.4596 25.6564 11.4668 24.382 8.55619C24.382 5.26855 27.1304 2.51117 30.4074 2.51117Z" fill="url(#paint0_linear_1_2085)"/>
<path fill-rule="evenodd" clip-rule="evenodd" d="M34.6358 4.31405C36.9614 6.64722 36.9614 10.4651 34.6358 12.6922L12.7539 34.6452C10.534 36.9784 6.7284 36.9784 4.40278 34.6452C2.07717 32.3121 2.07717 28.4941 4.40278 26.161L26.179 4.31405C28.5046 1.98089 32.3102 1.98089 34.6358 4.31405Z" fill="url(#paint1_linear_1_2085)"/>
<path opacity="0.5" fill-rule="evenodd" clip-rule="evenodd" d="M52.1837 2.51117C55.4607 2.51117 58.2091 5.26855 58.2091 8.55619C57.05 15.7842 54.5888 20.4696 58.2091 30.4031C58.2091 33.6908 55.4607 36.3421 52.1837 36.3421C48.9067 36.3421 46.2639 33.6908 46.2639 30.4031C48.668 21.4596 47.7338 17.2856 46.2639 8.55619C46.2639 5.26855 48.9067 2.51117 52.1837 2.51117Z" fill="url(#paint2_linear_1_2085)"/>
<path fill-rule="evenodd" clip-rule="evenodd" d="M67.9344 14.6012C70.26 16.9344 70.26 20.7523 67.9344 22.9794L56.4121 34.6452C54.0864 36.9784 50.2809 36.9784 47.9553 34.6452C45.6297 32.3121 45.6297 28.4941 47.9553 26.161L59.5834 14.6012C61.8033 12.268 65.6088 12.268 67.9344 14.6012Z" fill="url(#paint3_linear_1_2085)"/>
<path fill-rule="evenodd" clip-rule="evenodd" d="M56.412 4.31405C58.7377 6.64722 58.7377 10.4651 56.412 12.6922L34.6358 34.6452C32.3102 36.9784 28.5046 36.9784 26.179 34.6452C23.8534 32.3121 23.8534 28.4941 26.179 26.161L47.9553 4.31405C50.2809 1.98089 54.0864 1.98089 56.412 4.31405Z" fill="url(#paint4_linear_1_2085)"/>
<path d="M1.40744 52.6918C1.21109 52.6918 1.06094 52.6369 0.956989 52.5272C0.853039 52.4175 0.801064 52.2644 0.801064 52.0681V47.0525C0.801064 46.8562 0.855926 46.7031 0.965651 46.5934C1.08115 46.4837 1.23708 46.4288 1.43343 46.4288C1.60668 46.4288 1.74239 46.4635 1.84056 46.5328C1.94451 46.5963 2.0398 46.7089 2.12643 46.8706L4.12746 50.5262H3.83294L5.83398 46.8706C5.9206 46.7089 6.013 46.5963 6.11118 46.5328C6.21513 46.4635 6.35084 46.4288 6.51831 46.4288C6.71466 46.4288 6.86481 46.4837 6.96876 46.5934C7.07849 46.7031 7.13335 46.8562 7.13335 47.0525V52.0681C7.13335 52.2644 7.08138 52.4175 6.97743 52.5272C6.87348 52.6369 6.72333 52.6918 6.52698 52.6918C6.33063 52.6918 6.17759 52.6369 6.06786 52.5272C5.96391 52.4175 5.91194 52.2644 5.91194 52.0681V48.5598H6.10251L4.49129 51.4444C4.42199 51.5541 4.34691 51.6379 4.26606 51.6956C4.19099 51.7476 4.08993 51.7736 3.96288 51.7736C3.83583 51.7736 3.73188 51.7447 3.65103 51.6869C3.57018 51.6292 3.49799 51.5483 3.43446 51.4444L1.80591 48.5511H2.01381V52.0681C2.01381 52.2644 1.96184 52.4175 1.85789 52.5272C1.75971 52.6369 1.60956 52.6918 1.40744 52.6918ZM13.7166 52.7091C13.116 52.7091 12.5876 52.5792 12.1314 52.3193C11.681 52.0537 11.3287 51.6841 11.0746 51.2105C10.8263 50.737 10.7021 50.1854 10.7021 49.556C10.7021 49.0766 10.7714 48.6464 10.91 48.2653C11.0544 47.8783 11.2594 47.5492 11.525 47.2777C11.7907 47.0005 12.1083 46.7869 12.4779 46.6367C12.8533 46.4866 13.2662 46.4115 13.7166 46.4115C14.3288 46.4115 14.8601 46.5414 15.3105 46.8013C15.761 47.0612 16.1104 47.4279 16.3587 47.9014C16.6128 48.3692 16.7399 48.9178 16.7399 49.5473C16.7399 50.0266 16.6677 50.4598 16.5233 50.8467C16.3789 51.2336 16.1739 51.5657 15.9083 51.8429C15.6426 52.1201 15.325 52.3337 14.9554 52.4839C14.5858 52.634 14.1729 52.7091 13.7166 52.7091ZM13.7166 51.5657C14.0574 51.5657 14.3461 51.4877 14.5829 51.3318C14.8254 51.1701 15.0102 50.9391 15.1373 50.6388C15.2701 50.3327 15.3365 49.9718 15.3365 49.556C15.3365 48.9207 15.195 48.4298 14.9121 48.0833C14.6291 47.7311 14.2306 47.5549 13.7166 47.5549C13.3817 47.5549 13.0929 47.6329 12.8504 47.7888C12.6078 47.9447 12.423 48.1729 12.296 48.4732C12.1689 48.7735 12.1054 49.1344 12.1054 49.556C12.1054 50.1854 12.2469 50.6792 12.5299 51.0373C12.8129 51.3895 13.2084 51.5657 13.7166 51.5657ZM23.1232 52.7091C22.5226 52.7091 21.9942 52.5792 21.538 52.3193C21.0876 52.0537 20.7353 51.6841 20.4812 51.2105C20.2329 50.737 20.1087 50.1854 20.1087 49.556C20.1087 49.0766 20.178 48.6464 20.3166 48.2653C20.461 47.8783 20.666 47.5492 20.9316 47.2777C21.1973 47.0005 21.5149 46.7869 21.8845 46.6367C22.2599 46.4866 22.6728 46.4115 23.1232 46.4115C23.7354 46.4115 24.2667 46.5414 24.7171 46.8013C25.1676 47.0612 25.517 47.4279 25.7653 47.9014C26.0194 48.3692 26.1465 48.9178 26.1465 49.5473C26.1465 50.0266 26.0743 50.4598 25.9299 50.8467C25.7855 51.2336 25.5805 51.5657 25.3149 51.8429C25.0492 52.1201 24.7316 52.3337 24.362 52.4839C23.9924 52.634 23.5795 52.7091 23.1232 52.7091ZM23.1232 51.5657C23.464 51.5657 23.7527 51.4877 23.9895 51.3318C24.232 51.1701 24.4168 50.9391 24.5439 50.6388C24.6767 50.3327 24.7431 49.9718 24.7431 49.556C24.7431 48.9207 24.6016 48.4298 24.3187 48.0833C24.0357 47.7311 23.6372 47.5549 23.1232 47.5549C22.7883 47.5549 22.4995 47.6329 22.257 47.7888C22.0144 47.9447 21.8296 48.1729 21.7026 48.4732C21.5755 48.7735 21.512 49.1344 21.512 49.556C21.512 50.1854 21.6535 50.6792 21.9365 51.0373C22.2195 51.3895 22.615 51.5657 23.1232 51.5657ZM30.3209 52.6918C30.1188 52.6918 29.9629 52.6369 29.8531 52.5272C29.7492 52.4117 29.6972 52.25 29.6972 52.0421V47.1045C29.6972 46.885 29.7492 46.7176 29.8531 46.6021C29.9629 46.4866 30.1072 46.4288 30.2863 46.4288C30.4422 46.4288 30.5606 46.4606 30.6414 46.5241C30.728 46.5818 30.8262 46.68 30.9359 46.8186L33.9765 50.6908H33.7426V47.0698C33.7426 46.8677 33.7946 46.7118 33.8985 46.6021C34.0082 46.4866 34.1642 46.4288 34.3663 46.4288C34.5684 46.4288 34.7215 46.4866 34.8254 46.6021C34.9351 46.7118 34.99 46.8677 34.99 47.0698V52.0681C34.99 52.2587 34.9409 52.4117 34.8427 52.5272C34.7446 52.6369 34.6117 52.6918 34.4443 52.6918C34.2826 52.6918 34.1526 52.66 34.0544 52.5965C33.962 52.533 33.861 52.4319 33.7513 52.2933L30.7194 48.4212H30.9446V52.0421C30.9446 52.25 30.8926 52.4117 30.7887 52.5272C30.6847 52.6369 30.5288 52.6918 30.3209 52.6918ZM40.9145 52.7091C40.672 52.7091 40.4237 52.6889 40.1696 52.6485C39.9212 52.6138 39.6816 52.5619 39.4506 52.4926C39.2253 52.4233 39.0232 52.3366 38.8442 52.2327C38.7171 52.1634 38.6276 52.0739 38.5757 51.9641C38.5237 51.8486 38.5035 51.7331 38.515 51.6176C38.5323 51.5021 38.5757 51.4011 38.645 51.3145C38.72 51.2221 38.8124 51.1643 38.9222 51.1412C39.0377 51.1123 39.1647 51.1325 39.3033 51.2018C39.5401 51.3347 39.7971 51.4328 40.0743 51.4964C40.3572 51.5599 40.6373 51.5917 40.9145 51.5917C41.3361 51.5917 41.6364 51.5281 41.8154 51.4011C41.9945 51.2683 42.084 51.1037 42.084 50.9073C42.084 50.7398 42.0204 50.607 41.8934 50.5088C41.7663 50.4107 41.544 50.3269 41.2264 50.2576L40.2475 50.0497C39.6931 49.9342 39.2802 49.7379 39.0088 49.4607C38.7431 49.1777 38.6103 48.8081 38.6103 48.3519C38.6103 48.0631 38.6709 47.8004 38.7922 47.5636C38.9135 47.3268 39.0839 47.1218 39.3033 46.9486C39.5228 46.7753 39.7826 46.6425 40.0829 46.5501C40.389 46.4577 40.724 46.4115 41.0878 46.4115C41.4112 46.4115 41.7288 46.4519 42.0407 46.5328C42.3525 46.6078 42.6268 46.7204 42.8636 46.8706C42.9791 46.9399 43.0571 47.0294 43.0975 47.1391C43.1437 47.2431 43.1581 47.3499 43.1408 47.4596C43.1292 47.5636 43.0859 47.656 43.0109 47.7368C42.9416 47.8177 42.852 47.8697 42.7423 47.8928C42.6326 47.9159 42.4998 47.8899 42.3438 47.8148C42.1533 47.7166 41.9511 47.6444 41.7375 47.5982C41.5238 47.552 41.3043 47.5289 41.0791 47.5289C40.8366 47.5289 40.6287 47.5607 40.4554 47.6242C40.2879 47.6878 40.158 47.7773 40.0656 47.8928C39.979 48.0083 39.9357 48.1411 39.9357 48.2912C39.9357 48.4587 39.9963 48.5944 40.1176 48.6984C40.2389 48.8023 40.4496 48.8861 40.7499 48.9496L41.7288 49.1575C42.2948 49.2788 42.7163 49.4751 42.9935 49.7465C43.2707 50.0122 43.4093 50.3645 43.4093 50.8034C43.4093 51.0921 43.3516 51.3549 43.2361 51.5917C43.1206 51.8227 42.9531 52.0219 42.7337 52.1894C42.5142 52.3568 42.2514 52.4868 41.9454 52.5792C41.6393 52.6658 41.2957 52.7091 40.9145 52.7091ZM49.6258 52.7091C49.0252 52.7091 48.4967 52.5792 48.0405 52.3193C47.5901 52.0537 47.2378 51.6841 46.9837 51.2105C46.7354 50.737 46.6112 50.1854 46.6112 49.556C46.6112 49.0766 46.6805 48.6464 46.8191 48.2653C46.9635 47.8783 47.1685 47.5492 47.4341 47.2777C47.6998 47.0005 48.0174 46.7869 48.387 46.6367C48.7624 46.4866 49.1753 46.4115 49.6258 46.4115C50.2379 46.4115 50.7692 46.5414 51.2197 46.8013C51.6701 47.0612 52.0195 47.4279 52.2678 47.9014C52.5219 48.3692 52.649 48.9178 52.649 49.5473C52.649 50.0266 52.5768 50.4598 52.4324 50.8467C52.288 51.2336 52.083 51.5657 51.8174 51.8429C51.5517 52.1201 51.2341 52.3337 50.8645 52.4839C50.4949 52.634 50.082 52.7091 49.6258 52.7091ZM49.6258 51.5657C49.9665 51.5657 50.2552 51.4877 50.492 51.3318C50.7346 51.1701 50.9194 50.9391 51.0464 50.6388C51.1792 50.3327 51.2456 49.9718 51.2456 49.556C51.2456 48.9207 51.1042 48.4298 50.8212 48.0833C50.5382 47.7311 50.1397 47.5549 49.6258 47.5549C49.2908 47.5549 49.0021 47.6329 48.7595 47.7888C48.517 47.9447 48.3322 48.1729 48.2051 48.4732C48.0781 48.7735 48.0145 49.1344 48.0145 49.556C48.0145 50.1854 48.156 50.6792 48.439 51.0373C48.722 51.3895 49.1176 51.5657 49.6258 51.5657ZM59.0324 52.7091C58.4318 52.7091 57.9033 52.5792 57.4471 52.3193C56.9967 52.0537 56.6444 51.6841 56.3903 51.2105C56.142 50.737 56.0178 50.1854 56.0178 49.556C56.0178 49.0766 56.0871 48.6464 56.2257 48.2653C56.3701 47.8783 56.5751 47.5492 56.8407 47.2777C57.1064 47.0005 57.424 46.7869 57.7936 46.6367C58.169 46.4866 58.5819 46.4115 59.0324 46.4115C59.6445 46.4115 60.1758 46.5414 60.6263 46.8013C61.0767 47.0612 61.4261 47.4279 61.6744 47.9014C61.9285 48.3692 62.0556 48.9178 62.0556 49.5473C62.0556 50.0266 61.9834 50.4598 61.839 50.8467C61.6946 51.2336 61.4896 51.5657 61.224 51.8429C60.9583 52.1201 60.6407 52.3337 60.2711 52.4839C59.9015 52.634 59.4886 52.7091 59.0324 52.7091ZM59.0324 51.5657C59.3731 51.5657 59.6618 51.4877 59.8986 51.3318C60.1412 51.1701 60.326 50.9391 60.453 50.6388C60.5858 50.3327 60.6522 49.9718 60.6522 49.556C60.6522 48.9207 60.5108 48.4298 60.2278 48.0833C59.9448 47.7311 59.5463 47.5549 59.0324 47.5549C58.6974 47.5549 58.4087 47.6329 58.1661 47.7888C57.9236 47.9447 57.7388 48.1729 57.6117 48.4732C57.4847 48.7735 57.4211 49.1344 57.4211 49.556C57.4211 50.1854 57.5626 50.6792 57.8456 51.0373C58.1286 51.3895 58.5242 51.5657 59.0324 51.5657ZM66.23 52.6918C66.0279 52.6918 65.872 52.6369 65.7622 52.5272C65.6583 52.4117 65.6063 52.25 65.6063 52.0421V47.1045C65.6063 46.885 65.6583 46.7176 65.7622 46.6021C65.872 46.4866 66.0163 46.4288 66.1954 46.4288C66.3513 46.4288 66.4697 46.4606 66.5505 46.5241C66.6371 46.5818 66.7353 46.68 66.845 46.8186L69.8856 50.6908H69.6517V47.0698C69.6517 46.8677 69.7037 46.7118 69.8076 46.6021C69.9173 46.4866 70.0733 46.4288 70.2754 46.4288C70.4775 46.4288 70.6306 46.4866 70.7345 46.6021C70.8442 46.7118 70.8991 46.8677 70.8991 47.0698V52.0681C70.8991 52.2587 70.85 52.4117 70.7518 52.5272C70.6537 52.6369 70.5208 52.6918 70.3534 52.6918C70.1917 52.6918 70.0617 52.66 69.9635 52.5965C69.8711 52.533 69.7701 52.4319 69.6604 52.2933L66.6285 48.4212H66.8537V52.0421C66.8537 52.25 66.8017 52.4117 66.6978 52.5272C66.5938 52.6369 66.4379 52.6918 66.23 52.6918Z" fill="#0C0D0E"/>
<defs>
<linearGradient id="paint0_linear_1_2085" x1="36.3452" y1="2.43157" x2="15.0031" y2="9.96714" gradientUnits="userSpaceOnUse">
<stop stop-color="#111111"/>
<stop offset="0.921875" stop-color="#C5C5C5"/>
<stop offset="1" stop-color="#D5D5D5"/>
</linearGradient>
<linearGradient id="paint1_linear_1_2085" x1="36.4308" y1="2.48458" x2="2.44099" y2="36.3644" gradientUnits="userSpaceOnUse">
<stop stop-color="#0D0D0D"/>
<stop offset="1" stop-color="#B3B3B3"/>
</linearGradient>
<linearGradient id="paint2_linear_1_2085" x1="58.2271" y1="2.43157" x2="36.8851" y2="9.96714" gradientUnits="userSpaceOnUse">
<stop/>
<stop offset="1" stop-color="#575757"/>
</linearGradient>
<linearGradient id="paint3_linear_1_2085" x1="69.714" y1="12.7959" x2="46.0596" y2="36.3737" gradientUnits="userSpaceOnUse">
<stop stop-color="#0D0D0D"/>
<stop offset="1" stop-color="#B3B3B3"/>
</linearGradient>
<linearGradient id="paint4_linear_1_2085" x1="58.2071" y1="2.48458" x2="24.2172" y2="36.3644" gradientUnits="userSpaceOnUse">
<stop stop-color="#0D0D0D"/>
<stop offset="1" stop-color="#B3B3B3"/>
</linearGradient>
</defs>
</svg>
